<?xml version="1.0" encoding="UTF-8"?>
<svg id="Camada_1" xmlns="http://www.w3.org/2000/svg" version="1.1" viewBox="0 0 510 510">
  <path fill="white" d="M493.8,259.9c-12.3,15-57.7,65.8-71.2,81.4-10.1,12.1-15,18.9-27.9,4.5-30.2-28.1-73-68-98-91.2-5.9-5.5-15.2-5-20.5,1.1-23.3,26.4-62.1,71.1-84.2,95.9-3.6,3.1-9.1,3.1-12.7-.2l-21.1-19.3s-49.8-46.2-76.8-71.2c-12.2-11.3-28.6-17.2-45.2-15.9-5,.4-8.3,1.8-14.6,4.1-4.6,1.7-8.5-3.9-5.3-7.6l19.6-22.8c4.9-5.8,56.7-64.3,59.9-68,5-5.9,12.9-2.8,17.1,2.5,4.9,4.6,92.9,86.1,100.5,93.2,5.9,5.5,15.2,5,20.5-1.1,22.8-26,61.8-70.1,83.3-94.7,3.5-4.1,9.8-4.3,13.7-.7l21.1,19.3h0s49.8,46.2,76.8,71.2c16.2,14.7,38.9,20.9,59.8,11.8,4.6-1.8,8.5,3.8,5.3,7.6Z"/>
</svg>
